<svg width="39" height="25" viewBox="0 0 39 25" fill="none" xmlns="http://www.w3.org/2000/svg">
<path d="M34.125 10.375V5.5H31.6875V10.375H26.8125V12.8125H31.6875V17.6875H34.125V12.8125H39V10.375H34.125Z" fill="#C6D9D6"/>
<path d="M12.1875 10.375V15.25H19.0832C18.0765 18.0872 15.366 20.125 12.1875 20.125C8.15588 20.125 4.875 16.8441 4.875 12.8125C4.875 8.78088 8.15588 5.5 12.1875 5.5C13.9352 5.5 15.6171 6.12644 16.9236 7.26475L20.1264 3.589C17.9327 1.678 15.1149 0.625 12.1875 0.625C5.46731 0.625 0 6.09231 0 12.8125C0 19.5327 5.46731 25 12.1875 25C18.9077 25 24.375 19.5327 24.375 12.8125V10.375H12.1875Z" fill="#C6D9D6"/>
</svg>
