<?xml version="1.0" standalone="no"?>
<!DOCTYPE svg PUBLIC "-//W3C//DTD SVG 20010904//EN"
 "http://www.w3.org/TR/2001/REC-SVG-20010904/DTD/svg10.dtd">
<svg version="1.0" xmlns="http://www.w3.org/2000/svg"
 width="191.000000pt" height="191.000000pt" viewBox="0 0 191.000000 191.000000"
 preserveAspectRatio="xMidYMid meet">
<metadata>
Created by potrace 1.11, written by Peter Selinger 2001-2013
</metadata>
<g transform="translate(0.000000,191.000000) scale(0.100000,-0.100000)"
fill="#000000" stroke="none">
<path d="M5 1299 c-2 -3 -4 -157 -4 -342 0 -309 2 -337 17 -338 24 0 572 0
598 0 15 1 27 15 44 54 12 28 31 69 41 90 l17 37 -31 0 c-18 0 -133 2 -257 3
l-225 2 -1 240 c-1 132 -2 245 -3 250 -1 10 -190 15 -196 4z"/>
<path d="M631 1104 c-56 -114 -100 -209 -97 -211 3 -3 51 -6 107 -7 81 -1 103
2 110 14 5 8 25 50 45 93 33 68 54 95 54 68 0 -4 28 -69 63 -142 35 -74 81
-171 101 -215 l38 -81 104 -1 c59 0 104 4 104 9 0 5 -27 66 -60 136 -33 69
-60 127 -60 128 0 3 -68 150 -148 318 l-46 97 -107 0 -107 0 -101 -206z"/>
<path d="M1470 1288 c-14 -6 -42 -17 -63 -26 -54 -22 -120 -90 -153 -158 -25
-52 -29 -70 -29 -149 0 -78 4 -98 27 -146 141 -285 552 -254 642 49 53 180
-52 373 -233 428 -53 16 -155 17 -191 2z m189 -195 c42 -32 64 -69 68 -120 9
-92 -53 -171 -142 -181 -59 -6 -88 3 -131 40 -42 37 -54 65 -56 124 -2 131
156 214 261 137z"/>
</g>
</svg>
