<svg width="34" height="24" viewBox="0 0 34 24" fill="none" xmlns="http://www.w3.org/2000/svg">
<path d="M33.7925 11.499L23.1675 0.87404C22.8908 0.597325 22.4425 0.597325 22.1659 0.87404C21.8892 1.15075 21.8892 1.599 22.1659 1.87565L31.5818 11.2915H0.708355C0.316824 11.2915 0 11.6083 0 11.9999C0 12.3914 0.316824 12.7082 0.708355 12.7082H31.5818L22.1659 22.124C21.8892 22.4008 21.8892 22.849 22.1659 23.1256C22.3042 23.264 22.4855 23.3332 22.6667 23.3332C22.8479 23.3332 23.0292 23.264 23.1675 23.1256L33.7925 12.5006C34.0692 12.224 34.0692 11.7758 33.7925 11.499Z" fill="#263138"/>
</svg>
