<?xml version="1.0" encoding="UTF-8"?>
<!DOCTYPE svg PUBLIC "-//W3C//DTD SVG 1.1//EN" "http://www.w3.org/Graphics/SVG/1.1/DTD/svg11.dtd">
<!-- Creator: CorelDRAW 2020 (64-Bit) -->
<svg xmlns="http://www.w3.org/2000/svg" xml:space="preserve" width="84mm" height="56mm" version="1.1" style="shape-rendering:geometricPrecision; text-rendering:geometricPrecision; image-rendering:optimizeQuality; fill-rule:evenodd; clip-rule:evenodd"
viewBox="0 0 2098.19 1398.8"
 xmlns:xlink="http://www.w3.org/1999/xlink"
 xmlns:xodm="http://www.corel.com/coreldraw/odm/2003">
 <defs>
  <style type="text/css">
   <![CDATA[
    .fil2eng {fill:#00247D}
    .fil0eng {fill:#CF142B}
    .fil1eng {fill:white}
   ]]>
  </style>
 </defs>
 <g id="Layer_x0020_1">
  <metadata id="CorelCorpID_0Corel-Layer"/>
  <g id="_2592716946208">
   <polygon class="fil0eng" points="-0,559.51 -0,839.28 922.06,839.28 923.2,839.28 923.2,1398.8 1174.99,1398.8 1174.91,839.28 2098.19,839.28 2098.19,559.51 1174.99,559.51 1174.99,0 923.2,0 923.2,559.51 922.06,559.51 "/>
   <polygon class="fil1eng" points="1258.92,1398.8 1258.92,1002.65 1852.89,1398.8 2098.19,1398.8 2098.19,1235.4 1644.17,932.53 2098.19,932.53 2098.19,839.28 1174.91,839.28 1174.99,1398.8 "/>
   <polygon class="fil1eng" points="-0,932.53 454.18,932.93 -0,1235.4 -0,1398.8 245.37,1398.8 839.28,1002.68 839.28,1398.8 923.2,1398.8 923.2,839.28 922.06,839.28 -0,839.28 "/>
   <polygon class="fil1eng" points="2098.19,559.51 2098.19,466.27 1644.09,465.89 2098.19,163.4 2098.19,0 1852.89,0 1258.92,396.14 1258.92,0 1174.99,0 1174.99,559.51 "/>
   <polygon class="fil1eng" points="-0,163.4 454.18,465.87 -0,466.27 -0,559.51 922.06,559.51 923.2,559.51 923.2,0 839.28,0 839.13,396.27 245.37,0 -0,0 "/>
   <polygon class="fil2eng" points="245.37,0 839.13,396.27 839.28,0 "/>
   <polygon class="fil2eng" points="1258.92,0 1258.92,396.14 1852.89,0 "/>
   <polygon class="fil2eng" points="1852.89,1398.8 1258.92,1002.65 1258.92,1398.8 "/>
   <polygon class="fil2eng" points="839.28,1398.8 839.28,1002.68 245.37,1398.8 "/>
   <polygon class="fil2eng" points="-0,466.27 454.18,465.87 -0,163.4 "/>
   <polygon class="fil2eng" points="-0,1235.4 454.18,932.93 -0,932.53 "/>
   <polygon class="fil2eng" points="2098.19,466.27 2098.19,163.4 1644.09,465.89 "/>
   <polygon class="fil2eng" points="2098.19,1235.4 2098.19,932.53 1644.17,932.53 "/>
  </g>
 </g>
</svg>
