<svg width="20" height="18" viewBox="0 0 26 23" fill="none" xmlns="http://www.w3.org/2000/svg">
<path d="M19.0938 0C17.6829 0 16.3894 0.447991 15.2493 1.33156C14.1562 2.17864 13.4284 3.25755 13 4.0421C12.5716 3.2575 11.8438 2.17864 10.7507 1.33156C9.61061 0.447991 8.31711 0 6.90625 0C2.96908 0 0 3.22697 0 7.50624C0 12.1293 3.70414 15.2924 9.31171 20.0808C10.264 20.894 11.3433 21.8158 12.4652 22.7988C12.613 22.9286 12.803 23 13 23C13.197 23 13.387 22.9286 13.5348 22.7989C14.6568 21.8157 15.7361 20.894 16.6889 20.0803C22.2959 15.2924 26 12.1293 26 7.50624C26 3.22697 23.0309 0 19.0938 0Z" fill="#16968B"/>
</svg>
