<svg width="28" height="28" viewBox="0 0 28 28" fill="none" xmlns="http://www.w3.org/2000/svg">
<path d="M27.4233 27.4303V27.4292H27.4302V17.3691C27.4302 12.4476 26.3707 8.65649 20.6172 8.65649C17.8513 8.65649 15.9951 10.1743 15.2374 11.6133H15.1574V9.11595H9.70215V27.4292H15.3825V18.3611C15.3825 15.9736 15.8351 13.6648 18.7919 13.6648C21.7052 13.6648 21.7487 16.3896 21.7487 18.5143V27.4303H27.4233Z" fill="#C6D9D6"/>
<path d="M0.452148 9.11719H6.13939V27.4304H0.452148V9.11719Z" fill="#C6D9D6"/>
<path d="M3.29394 0C1.47553 0 0 1.47553 0 3.29394C0 5.11234 1.47553 6.61873 3.29394 6.61873C5.11234 6.61873 6.58787 5.11234 6.58787 3.29394C6.58673 1.47553 5.1112 0 3.29394 0V0Z" fill="#C6D9D6"/>
</svg>
