<svg width="30" height="22" viewBox="0 0 30 22" fill="none" xmlns="http://www.w3.org/2000/svg">
<path d="M29.7361 1.91333L20.6377 10.9531L29.7361 19.993C29.9006 19.6492 30.0004 19.2692 30.0004 18.8633V3.04296C30.0004 2.63708 29.9006 2.2571 29.7361 1.91333Z" fill="#C6D9D6"/>
<path d="M27.3631 0.40625H2.63647C2.23059 0.40625 1.85061 0.506036 1.50684 0.670509L13.1356 12.2406C14.1638 13.2689 15.8358 13.2689 16.864 12.2406L28.4927 0.670509C28.149 0.506036 27.769 0.40625 27.3631 0.40625Z" fill="#C6D9D6"/>
<path d="M0.264259 1.91333C0.0997855 2.2571 0 2.63708 0 3.04296V18.8633C0 19.2692 0.0997855 19.6493 0.264259 19.993L9.36267 10.9531L0.264259 1.91333Z" fill="#C6D9D6"/>
<path d="M19.3943 12.196L18.1069 13.4835C16.3936 15.1968 13.6059 15.1968 11.8927 13.4835L10.6052 12.196L1.50684 21.2359C1.85061 21.4003 2.23059 21.5001 2.63647 21.5001H27.3631C27.769 21.5001 28.149 21.4003 28.4927 21.2359L19.3943 12.196Z" fill="#C6D9D6"/>
</svg>
