<svg width="81" height="81" viewBox="0 0 81 81" fill="none" xmlns="http://www.w3.org/2000/svg">
<path fill-rule="evenodd" clip-rule="evenodd" d="M80.9921 65.2679C80.8789 62.1347 79.5737 59.2108 77.3173 57.0347C72.8984 52.7738 69.1962 50.3141 65.666 49.294C60.8012 47.888 56.2963 49.1666 52.2753 53.0934L52.2573 53.1113L47.9755 57.3614C45.3159 55.8673 40.1459 52.5794 34.4912 46.9246L34.0747 46.5085C28.4575 40.8912 25.1484 35.6916 23.643 33.0212L27.8891 28.7432L27.9067 28.725C31.8334 24.7044 33.1123 20.1991 31.7065 15.3347C30.686 11.8046 28.2265 8.10237 23.9658 3.68361C21.7895 1.42683 18.8657 0.121658 15.7329 0.00868181C12.6005 -0.104111 9.58931 0.986526 7.25581 3.08119L7.16499 3.1628L7.09224 3.23054L7.04194 3.27974C2.39692 7.92427 -0.0376458 14.4267 0.000440094 22.0839C0.0653815 35.0914 7.21431 49.9671 19.124 61.8765L19.1538 61.906C21.3925 64.1417 23.9345 66.354 26.7099 68.482C28.0961 69.5453 30.0825 69.283 31.1459 67.8963C32.2094 66.5095 31.9472 64.5234 30.56 63.4602C27.9917 61.4908 25.6494 59.4524 23.5986 57.4016L23.5693 57.3723C12.8295 46.6205 6.38521 33.4194 6.32857 22.0521C6.29878 16.155 8.07271 11.2327 11.4589 7.8116L11.4833 7.78975C13.7832 5.72554 17.2651 5.85115 19.4106 8.07582C27.6025 16.571 27.0092 20.5816 23.3896 24.2934L17.5244 30.2028C16.6044 31.1295 16.3486 32.5261 16.8798 33.719C17.0283 34.0535 20.6303 42.0131 29.6015 50.9841L30.0175 51.4C38.9877 60.3699 46.9472 63.9718 47.2817 64.1208C48.4746 64.6522 49.871 64.3959 50.7978 63.4761L56.706 57.6118C60.4184 53.9917 64.4292 53.3976 72.9248 61.5899C75.1494 63.7351 75.2753 67.2171 73.2114 69.5166L73.1889 69.5415C69.7954 72.9 64.9257 74.6725 59.0927 74.6725L58.9482 74.6722C54.2861 74.6489 48.8872 73.3708 43.3354 70.9762C41.7309 70.284 39.8691 71.0237 39.1767 72.6283C38.4848 74.2329 39.2246 76.0947 40.8291 76.7869C47.246 79.5548 53.3315 80.9723 58.9169 81.0003L59.0942 81.0006C66.6743 81.0005 73.1123 78.5676 77.7207 73.959C77.7612 73.9188 77.7998 73.8779 77.8378 73.8356L77.9199 73.7443C80.0136 71.4113 81.1049 68.401 80.9921 65.2679ZM42.3979 9.66487L42.5561 9.66457C50.267 9.66457 57.4926 12.6458 62.915 18.068C68.3818 23.535 71.3725 30.8221 71.3354 38.5865C71.3271 40.3339 72.7368 41.7572 74.4843 41.7656H74.4995C76.2397 41.7656 77.6547 40.3589 77.663 38.6166C77.7085 29.1502 74.0595 20.2636 67.3896 13.5932C60.7714 6.97481 51.9584 3.33644 42.5571 3.33644L42.3833 3.33675C40.6357 3.34517 39.226 4.76851 39.2343 6.51588C39.2426 8.25813 40.6577 9.66487 42.3979 9.66487ZM50.2324 17.824C51.7978 18.257 55.0551 19.1577 58.4492 22.5518C61.7211 25.8239 62.6298 28.9108 63.1176 30.569L63.1606 30.7142C63.6567 32.3898 62.7006 34.1503 61.0249 34.6463C60.725 34.735 60.4228 34.7774 60.1254 34.7772C58.7597 34.7772 57.5 33.8862 57.0927 32.5103L57.0468 32.3555C56.6723 31.0821 56.1059 29.1579 53.9746 27.0264C51.7602 24.8123 49.8256 24.2773 48.5458 23.9232C46.8613 23.4575 45.8735 21.7146 46.3393 20.0303C46.8051 18.3459 48.5473 17.3581 50.2324 17.824Z" fill="url(#paint0_linear)"/>
<defs>
<linearGradient id="paint0_linear" x1="26" y1="-8.66502e-07" x2="98.5" y2="91" gradientUnits="userSpaceOnUse">
<stop stop-color="#16968B"/>
<stop offset="1" stop-color="#9AD3BF"/>
</linearGradient>
</defs>
</svg>
