<svg width="30" height="30" viewBox="0 0 30 30" fill="none" xmlns="http://www.w3.org/2000/svg">
<path d="M29.1519 22.0169L24.9654 17.8304C23.4702 16.3352 20.9283 16.9333 20.3302 18.877C19.8816 20.2228 18.3864 20.9704 17.0408 20.6713C14.0503 19.9237 10.0133 16.0361 9.26567 12.8962C8.81711 11.5504 9.71423 10.0552 11.0599 9.60672C13.0037 9.00863 13.6018 6.46678 12.1066 4.97157L7.91998 0.784985C6.72381 -0.261662 4.92956 -0.261662 3.88292 0.784985L1.04202 3.62588C-1.79887 6.6163 1.34106 14.5409 8.36854 21.5684C15.396 28.5959 23.3206 31.8854 26.311 28.8949L29.1519 26.054C30.1986 24.8578 30.1986 23.0636 29.1519 22.0169Z" fill="#C6D9D6"/>
</svg>
