<svg width="20" height="20" viewBox="0 0 20 20" fill="none" xmlns="http://www.w3.org/2000/svg">
<path fill-rule="evenodd" clip-rule="evenodd" d="M7.97311 13.7887C2.88875 13.7887 0.282203 7.50073 3.88664 3.89948C4.23556 3.55084 5.09 2.98908 5.58174 2.7578C8.37684 1.44211 11.809 2.60351 13.2003 5.59511C15.0351 9.54029 11.9456 13.7887 7.97311 13.7887ZM0 7.5774C0 11.1658 1.53787 13.637 4.43789 15.1608C9.48561 17.8128 15.9462 13.7737 15.9462 8.38766C15.9462 5.75472 15.276 3.99775 13.6166 2.34375C8.39219 -2.86424 0 1.37263 0 7.5774Z" fill="white"/>
<path fill-rule="evenodd" clip-rule="evenodd" d="M13.2441 15.2692L16.9266 18.8811C17.4055 19.3596 17.7763 19.9949 18.3792 19.9949C19.0169 19.9949 20.0007 19.1934 20.0007 18.2395C20.0007 17.8402 19.1642 17.2011 18.886 16.9229C18.0836 16.1211 15.6816 13.6083 15.1359 13.2434C15.0207 13.3276 13.3441 15.1193 13.2441 15.2689V15.2692Z" fill="white"/>
</svg>

