<svg width="141" height="123" viewBox="0 0 141 123" fill="none" xmlns="http://www.w3.org/2000/svg">
<path fill-rule="evenodd" clip-rule="evenodd" d="M70.4998 82.4195C71.4299 83.0432 72.5295 83.9914 73.4115 84.7759L97.8805 105.504C98.4063 105.947 98.8106 106.291 99.2855 106.731L111.981 117.514C115.336 120.615 115.964 120.333 111.783 120.342C83.311 120.404 54.8364 120.342 26.3645 120.342C26.5624 119.492 26.6726 119.393 27.3313 118.894L41.1036 107.217C41.1347 107.185 41.1828 107.143 41.2167 107.112C41.7877 106.584 42.0704 106.37 42.6442 105.907L48.4562 100.966C51.4753 98.1409 57.0413 93.939 60.3119 90.8827L70.4998 82.4195ZM23.5094 118.152C23.3963 117.661 23.2918 117.647 23.2918 117.054V53.0481C23.2918 51.4085 25.2847 53.398 26.9638 54.6425L32.6062 58.8727C32.9341 59.1154 32.5327 58.8163 32.8521 59.0646L34.2401 60.0918C38.421 62.9533 44.0746 67.7056 48.0605 70.4063L55.953 76.3381C56.5353 76.8094 56.7982 76.8545 57.3805 77.323C57.8272 77.687 58.1522 77.9579 58.6102 78.2909L63.902 82.2135C64.6059 82.7751 64.572 82.7017 64.572 83.9547C63.8964 84.1353 62.5791 85.4278 61.9741 85.964L53.1912 93.4169C53.1572 93.4479 53.1063 93.4903 53.0724 93.5185L39.5149 104.973C39.481 105.004 39.433 105.046 39.399 105.077L32.1624 111.224C31.9079 111.461 31.7101 111.65 31.4698 111.847L25.0189 117.246C24.3433 117.808 24.5016 118.07 23.5094 118.152ZM76.21 83.2972C76.21 82.4929 80.2779 79.843 81.0863 79.1799C81.663 78.7086 81.8072 78.686 82.3895 78.2881C82.8192 77.9946 83.2121 77.6673 83.6248 77.3286L117.27 52.1704C117.524 52.701 117.711 53.1299 117.711 53.9229V117.054C117.711 117.723 117.499 117.94 117.27 118.369L110.96 113.052C110.437 112.59 110.152 112.412 109.643 111.957C109.114 111.489 108.812 111.323 108.32 110.865L95.9979 100.37C95.9639 100.339 95.9187 100.294 95.8848 100.263L90.9689 96.1825C90.8785 96.1063 90.7315 95.9765 90.6212 95.8749C90.5873 95.8438 90.5393 95.7987 90.5082 95.7676L78.5365 85.5774C78.5054 85.5463 78.4574 85.5012 78.4263 85.4701C77.4058 84.5219 76.21 83.9632 76.21 83.2972ZM114.197 50.6353C114.016 51.3126 110.938 54.0951 110.392 53.7987L110.901 50.4377L114.197 50.6353ZM26.8055 50.6353C27.9702 50.1838 29.5984 50.3672 30.7574 50.6353C31.0147 51.7443 30.9751 52.3313 30.9751 53.7056C29.9037 53.4742 28.561 52.272 26.8055 50.6353ZM26.3645 47.5677C26.4606 46.6986 29.5786 43.8399 30.3164 43.8399C31.2747 43.8399 30.9751 44.7683 30.9751 46.9102C30.9751 48.4623 26.6726 47.7399 26.3645 47.5677ZM113.977 47.785C110.138 47.785 111.209 48.0672 109.804 47.1275C109.858 46.4897 109.623 44.0007 110.174 43.8709C111.297 43.6085 112.682 45.4484 113.694 46.3148C114.672 47.0654 114.2 47.785 113.977 47.785ZM33.7397 45.4033L33.8302 17.9734C33.8302 16.9603 33.2394 14.9058 34.7093 14.9058H106.29C106.805 14.9058 107.17 15.2699 107.17 15.7835V55.8983C107.17 56.6095 103.899 58.8727 103.172 59.3609C102.372 59.9027 101.821 60.3966 101.052 60.9695C100.637 61.2799 100.467 61.4492 100.08 61.7512L94.7767 65.6653C91.1329 68.1515 85.2785 72.757 81.5725 75.5L79.4213 77.0775C79.3874 77.1085 79.3393 77.1537 79.3054 77.1819C79.2715 77.2101 79.2263 77.2581 79.1895 77.2863C79.1556 77.3145 79.1104 77.3625 79.0736 77.3907C78.7174 77.6786 78.4517 77.7971 78.0277 78.0962C73.9005 81.0085 74.2341 82.0583 71.9868 80.0575C71.3649 79.5016 71.1726 79.3633 70.4998 78.9146C69.8271 79.3633 69.6377 79.5016 69.0129 80.0575C66.8985 81.9426 67.0144 80.9972 64.8349 79.527C64.0094 78.9682 63.314 78.2994 62.5847 77.8281L54.6611 71.9301C54.2512 71.6254 53.9459 71.3996 53.5445 71.0694C52.9678 70.5925 52.9763 70.68 52.3714 70.268L47.3622 66.5006C47.3283 66.4724 47.2831 66.4272 47.2463 66.3962L39.9474 60.9695C39.1503 60.3712 38.4831 59.931 37.6549 59.3129C34.7998 57.1767 33.9433 56.4514 33.7369 55.8362C33.5616 55.3029 33.7567 46.0439 33.7397 45.4033ZM40.8577 8.98809L48.5438 8.87803C48.9255 8.87803 48.7445 8.98809 49.4202 8.98809H100.583C101.219 8.98809 102.559 8.56197 102.559 9.86292C102.559 10.955 102.842 12.2757 101.021 12.2757H39.5404C38.2259 12.2757 38.4407 10.5289 38.4407 9.86292C38.4407 8.37854 40.6485 8.98809 40.8577 8.98809ZM43.4923 3.50775C43.4923 3.00262 43.6449 2.85023 44.1509 2.85023H96.8487C98.0501 2.85023 97.3717 5.13041 97.2897 6.13787H43.7128C43.611 4.94133 43.4923 5.5396 43.4923 3.50775ZM40.4195 6.13787C34.6245 6.13787 35.8061 5.46058 35.8061 11.6182C34.7065 12.5692 34.7659 12.2334 31.6337 12.2757L31.0231 12.9812C30.7687 13.6557 31.2295 34.8913 30.9779 38.5797C30.9157 39.4601 30.8111 39.6887 30.3249 40.1233C29.8981 40.5043 29.638 40.6905 29.1687 41.159L23.3963 46.137C20.1568 49.3964 20.6571 46.8425 20.6571 54.143V114.424C20.6571 120.915 21.149 120.373 18.0225 120.344C12.2502 120.294 6.44949 120.342 0.674277 120.342C0.15414 121.121 0.015625 120.689 0.015625 121.877C0.015625 122.388 0.600779 122.975 1.11244 122.975H126.932C127.969 122.975 127.811 121.908 127.811 121.219C127.811 120.167 126.683 120.322 125.623 120.336C124.591 120.35 123.562 120.336 122.533 120.35C121.196 120.37 120.597 120.567 120.376 119.433L120.357 50.1866C120.376 48.0785 120.238 48.7022 117.923 46.4785L111.15 40.524C110.802 40.2531 110.627 40.2108 110.347 39.7931C110.239 39.6323 109.804 38.7179 109.804 38.5797L109.886 14.4656C109.9 12.9361 110.279 13.6388 109.366 12.2757C107.093 12.2757 106.644 12.5862 105.194 11.6182C105.194 9.81494 105.318 7.8226 104.973 6.35798C101.906 5.64401 100.391 7.01551 100.15 5.03446C99.7971 2.11651 101.052 0 98.8247 0H42.175C39.4838 0 41.8047 3.25377 40.4195 6.13787Z" fill="#C6D9D6"/>
<path fill-rule="evenodd" clip-rule="evenodd" d="M8.79785 42.7449C9.72788 43.236 9.73071 43.4984 10.624 43.9894C11.3448 44.3845 11.9356 44.6893 12.5604 45.1267L14.4459 46.3148C15.096 46.7832 15.636 47.1501 16.484 47.3476C17.2133 46.8594 17.5695 46.1483 17.8013 45.1549L14.9801 43.3686C14.525 43.0695 14.4346 43.1033 13.9681 42.8465L12.06 41.6782C11.3166 41.1561 11.0848 40.8711 9.89466 40.7723C9.53 41.4609 9.17665 42.0281 8.79785 42.7449Z" fill="#C6D9D6"/>
<path fill-rule="evenodd" clip-rule="evenodd" d="M7.91797 51.0755C7.91797 51.7246 8.55683 53.0481 9.01761 53.0481C10.0664 53.0481 10.4536 52.8647 11.2112 52.6079C11.884 52.3793 12.52 52.2777 13.354 52.1168C13.9957 51.9927 17.3596 51.3577 17.3596 50.6353C17.3596 47.4916 14.9624 49.0154 13.9787 49.2327L9.69039 50.212C9.15047 50.3136 7.91797 50.4716 7.91797 51.0755Z" fill="#C6D9D6"/>
<path fill-rule="evenodd" clip-rule="evenodd" d="M16.9216 36.8272L18.4849 43.157C18.8552 44.4805 18.4679 44.9377 19.9972 44.9377C22.3972 44.9377 20.899 42.2314 20.7463 41.5569C20.5569 40.7159 20.605 40.1233 20.3788 39.2937C19.6976 36.8103 19.7372 34.8405 17.6001 35.9665C17.3174 36.1161 16.9216 36.4942 16.9216 36.8272Z" fill="#C6D9D6"/>
<path fill-rule="evenodd" clip-rule="evenodd" d="M131.541 121.439C131.541 122.328 132.016 122.927 132.802 122.932L139.561 123C140.276 123.006 140.983 122.65 140.983 121.439C140.983 120.929 140.562 120.497 139.886 120.342H133.079C132.338 120.342 131.541 120.731 131.541 121.439Z" fill="#C6D9D6"/>
<path d="M78.6779 41.6298C79.2424 42.1944 79.2424 43.1096 78.6779 43.6739L68.9819 53.3702C68.4173 53.9345 67.5024 53.9345 66.9378 53.3702L62.3221 48.7542C61.7576 48.1899 61.7576 47.2747 62.3221 46.7104C62.8864 46.1459 63.8016 46.1459 64.3659 46.7104L67.9597 50.3042L76.6338 41.6298C77.1984 41.0655 78.1136 41.0655 78.6779 41.6298ZM89 47.5C89 57.7259 80.7245 66 70.5 66C60.2741 66 52 57.7245 52 47.5C52 37.2741 60.2755 29 70.5 29C80.7259 29 89 37.2755 89 47.5ZM86.1094 47.5C86.1094 38.8719 79.127 31.8906 70.5 31.8906C61.8719 31.8906 54.8906 38.873 54.8906 47.5C54.8906 56.1281 61.873 63.1094 70.5 63.1094C79.1281 63.1094 86.1094 56.127 86.1094 47.5Z" fill="#16968B"/>
</svg>
