<svg xmlns="http://www.w3.org/2000/svg" width="42" height="42" viewBox="0 0 42 42"><defs><style>.a{fill:#28af9e;}.b{fill:#149a89;}.c{fill:#fff;}</style></defs><g transform="translate(0 0)"><circle class="a" cx="21" cy="21" r="21" transform="translate(0 0)"/><path class="b" d="M188.8,169.767l10.726,10.726a20.846,20.846,0,0,0,15.464-20.136v-.592L206.567,152Z" transform="translate(-173.27 -139.497)"/><g transform="translate(7.008 10.298)"><path class="c" d="M99.578,208.714a2.464,2.464,0,0,1,0,3.422l-1.908,1.908a2.464,2.464,0,0,1-3.422,0l-8.357-8.423a2.464,2.464,0,0,1,0-3.422l1.908-1.908a2.464,2.464,0,0,1,3.422,0Z" transform="translate(-85.2 -193.48)"/><path class="c" d="M179.568,125.891a2.464,2.464,0,0,1,3.422,0L184.9,127.8a2.464,2.464,0,0,1,0,3.422l-14.477,14.411a2.464,2.464,0,0,1-3.422,0l-1.908-1.908a2.464,2.464,0,0,1,0-3.422Z" transform="translate(-157.885 -125.2)"/></g></g></svg>