<svg width="27" height="27" viewBox="0 0 27 27" fill="none" xmlns="http://www.w3.org/2000/svg">
<path d="M13.4694 0C6.03045 0 0 6.03045 0 13.4694C0 20.9083 6.03045 26.9388 13.4694 26.9388C20.9083 26.9388 26.9388 20.9083 26.9388 13.4694C26.9309 6.03378 20.905 0.0079486 13.4694 0ZM14.4315 13.4694C14.4315 14.0008 14.0008 14.4315 13.4694 14.4315H5.7726C5.24123 14.4315 4.81048 14.0008 4.81048 13.4694C4.81048 12.938 5.24123 12.5073 5.7726 12.5073H12.5073V5.7726C12.5073 5.24123 12.9381 4.81048 13.4694 4.81048C14.0008 4.81048 14.4315 5.24123 14.4315 5.7726V13.4694Z" fill="#C6D9D6"/>
</svg>
