<?xml version="1.0" encoding="UTF-8"?>
<!DOCTYPE svg PUBLIC "-//W3C//DTD SVG 1.1//EN" "http://www.w3.org/Graphics/SVG/1.1/DTD/svg11.dtd">
<!-- Creator: CorelDRAW 2020 (64-Bit) -->
<svg xmlns="http://www.w3.org/2000/svg" xml:space="preserve" width="84mm" height="56mm" version="1.1" style="shape-rendering:geometricPrecision; text-rendering:geometricPrecision; image-rendering:optimizeQuality; fill-rule:evenodd; clip-rule:evenodd"
viewBox="0 0 3051.64 2034.43"
 xmlns:xlink="http://www.w3.org/1999/xlink"
 xmlns:xodm="http://www.corel.com/coreldraw/odm/2003">
 <defs>
  <style type="text/css">
   <![CDATA[
    .fil0 {fill:#0801B3}
    .fil1 {fill:#C60001}
    .fil2 {fill:#F8F6F7}
   ]]>
  </style>
 </defs>
 <g id="Layer_x0020_1">
  <metadata id="CorelCorpID_0Corel-Layer"/>
  <g id="_2579497441328">
   <polygon class="fil0" points="-0,1096.09 1526.08,1095.45 1526.54,938.28 1526.24,782.54 1526.38,626.36 1527.14,468.66 1527.19,314.21 1526.48,156.69 1525.9,0 -0,0 "/>
   <polygon class="fil1" points="-0,1408.98 3051.64,1408.99 3051.64,1251.13 -0,1251.17 "/>
   <polygon class="fil1" points="-0,2034.43 3051.64,2034.43 3051.64,1876.65 -0,1876.65 "/>
   <polygon class="fil1" points="-0,1721.42 3051.64,1721.42 3051.64,1564.24 -0,1564.27 "/>
   <polygon class="fil2" points="-0,1251.17 3051.64,1251.13 3051.64,1095.91 1526.08,1095.45 -0,1096.09 "/>
   <polygon class="fil2" points="-0,1564.27 3051.64,1564.24 3051.64,1408.99 -0,1408.98 "/>
   <polygon class="fil2" points="-0,1876.65 3051.64,1876.65 3051.64,1721.42 -0,1721.42 "/>
   <polygon class="fil1" points="1526.08,1095.45 3051.64,1095.91 3051.64,938.06 1526.54,938.28 "/>
   <polygon class="fil1" points="1526.48,156.69 3051.64,157.78 3051.64,0 1525.9,0 "/>
   <polygon class="fil1" points="1526.24,782.54 3051.64,783.29 3051.64,625.44 1526.38,626.36 "/>
   <polygon class="fil2" points="1526.38,626.36 3051.64,625.44 3051.64,470.18 1527.14,468.66 "/>
   <polygon class="fil2" points="1527.19,314.21 3051.64,313.01 3051.64,157.78 1526.48,156.69 "/>
   <polygon class="fil1" points="1527.14,468.66 3051.64,470.18 3051.64,313.01 1527.19,314.21 "/>
   <polygon class="fil2" points="1526.54,938.28 3051.64,938.06 3051.64,783.29 1526.24,782.54 "/>
   <path class="fil2" d="M1363.31 981.94c12.81,11.48 10.14,11.87 27.28,19.2l-7.47 39.94c13.71,-5.97 17.71,-11.91 30.81,-17.8 12.94,5.62 18.54,11.93 31.22,18.25l-2.1 -40.28 20.99 -19.71c-56.93,-4.21 -26.49,4.18 -50.11,-34.3 -24.89,38.47 7.76,29.28 -50.62,34.71z"/>
   <path class="fil2" d="M1363.31 86.79c12.81,11.48 10.14,11.88 27.28,19.2l-7.47 39.94c13.71,-5.97 17.71,-11.91 30.81,-17.81 12.94,5.62 18.54,11.94 31.22,18.25l-2.11 -40.28 21.02 -19.73c-56.93,-4.12 -26.55,4.14 -50.14,-34.28 -24.89,38.47 7.76,29.29 -50.62,34.71z"/>
   <path class="fil2" d="M1401.02 307.13l-37.12 3.01c10.94,14.88 11.19,12.85 26.47,19.66l-7.13 40.23 30.29 -19.09c15.03,7.1 18.61,14.84 33.43,18.34l-4.24 -39.62 21.21 -19.47c-55.84,-4.42 -26.61,3.15 -50,-34.28l-12.9 31.22z"/>
   <path class="fil2" d="M580.66 534.08c11.16,11.71 10.59,12.73 26.72,18.79l-8.09 41.22c13.32,-6.47 18.07,-12.61 31.39,-18.54 16.06,6.98 17.12,15.01 32.77,16.65l-10.06 -32.59 14.64 -13.88c6.63,-5.89 8.09,-6.92 12.56,-11.58 -55.85,-4.54 -26.46,2.46 -49.9,-34.27 -23.48,36.82 6.01,29.72 -50.01,34.19z"/>
   <path class="fil2" d="M1009.42 195.52l-37.68 2.62c3.92,3.71 7.02,6.56 13.18,12.02l14.42 13.63 -8.54 34.4c16.76,-6.47 16.35,-11.08 31.5,-17.7 17.11,6.98 14.95,13.61 32.92,17.32l-10.03 -33.79 28.81 -24.42 -37.27 -3.35 -12.99 -32 -14.32 31.28z"/>
   <path class="fil2" d="M95.28 308.5l-36.62 0.84 13.97 14.86c5.96,5.44 8.4,7.08 13,11.49l-9.53 35.26c10.34,-5.46 22.1,-12.68 30.71,-18.92 13.38,4.98 19.62,11.36 34.08,18.67l-9.69 -34.86 27.18 -25.72c-60.72,-3.83 -25.22,1.88 -51.48,-36.1l-11.62 34.5z"/>
   <path class="fil2" d="M226.34 643.46l-37.96 2.5 25.79 21.08 -5.63 37.78c16.27,-5.91 17.7,-9.97 30.5,-16.94 13.71,5.8 17.09,11.66 31.89,18.29l-8.81 -34.71 27.89 -26.12c-57.48,-1.61 -27.01,0.56 -50.97,-33.04l-12.7 31.16z"/>
   <path class="fil2" d="M1009.39 643.09l-37.69 2.6 27.6 25.67 -8.46 34.4c16.57,-6.44 16.5,-11.13 31.46,-17.78 16.88,7.08 14.96,13.73 32.95,17.42l-10.03 -33.82c9.11,-8.96 19.03,-16.17 28.01,-25.45l-36.48 -2.29 -12.46 -30.8 -14.9 30.04z"/>
   <path class="fil2" d="M226.36 195.83l-37.95 2.6 25.8 20.98 -5.6 37.88c15.84,-5.9 17.9,-10.14 30.44,-16.93 13.79,5.75 17.07,11.61 31.91,18.27l-8.81 -34.72 27.88 -26.11c-57.17,-1.69 -27.15,0.69 -50.98,-33.07l-12.69 31.12z"/>
   <path class="fil2" d="M580.66 86.5c11.27,11.79 10.42,12.75 26.76,18.76l-8.14 41.29 30.73 -19.55c16.67,7.89 17.93,15.96 33.43,17.63l-10.07 -32.59 14.66 -13.84c6.75,-5.99 8.02,-6.84 12.6,-11.65 -56.18,-4.72 -26.24,2.62 -49.95,-34.24 -23.57,36.78 6.14,29.66 -50.01,34.2z"/>
   <path class="fil2" d="M580.66 981.65c11.27,11.79 10.42,12.75 26.76,18.76l-8.14 41.28 30.73 -19.55c16.67,7.9 17.93,15.96 33.43,17.64l-10.07 -32.59c1.42,-1.22 2.87,-4.13 3.34,-3.21 0.47,0.9 2.16,-2.35 2.8,-2.96l21.11 -19.33c-56.18,-4.72 -26.24,2.62 -49.95,-34.24 -23.57,36.78 6.14,29.66 -50.01,34.2z"/>
   <path class="fil2" d="M710.89 869.33c0.91,0.96 2.33,1.08 2.78,2.82 0.44,1.72 2.14,2.21 2.77,2.76 0.61,0.55 2.03,1.98 2.8,2.63l18.64 12.58 -7.35 38.21c19.44,-7.13 17.67,-10.41 32.38,-16.64l29.84 19.34 -8.62 -35.75c12.61,-14.41 12.06,-12.33 27.41,-18.48 -9.11,-6.98 4.79,-3.08 -17.92,-7.99 -2.79,-0.6 -14.57,-0.72 -18.73,-0.99l-12.32 -33.98c-24.39,35.34 5.46,32.92 -51.69,35.49z"/>
   <path class="fil2" d="M1009.69 867.17l-38.41 2.44c3.66,3.32 7.42,6.84 13.4,12.05 1.15,1 4.65,3.94 5.8,4.97 8.18,7.3 2.38,1.47 9.09,8.52l-8.63 34.31c16.11,-5.63 17.47,-10.15 31.35,-17.89l31 18.89 -7.87 -35.22 28.05 -25.4c-55.4,-4.33 -29.45,0.49 -51.18,-32.32l-12.61 29.66z"/>
   <path class="fil2" d="M1400.81 754.62l-36.88 3.14c10.9,14.69 11.38,12.84 26.39,19.65l-7.07 40.16 30.3 -19.01c14.89,7.04 18.6,14.78 33.39,18.28l-10.38 -33.47c1.32,-1.18 2.8,-4.11 3.3,-3.18 0.48,0.92 2.22,-2.34 2.88,-2.96l21.23 -19.45c-55.9,-4.39 -26.62,3.19 -50.03,-34.26l-13.11 31.09z"/>
   <path class="fil2" d="M1009.7 419.56l-38.41 2.52 28.25 25.5 -8.59 34.32c16.28,-5.64 17.34,-10.11 31.34,-17.89l31 18.96 -7.8 -35.29 27.95 -25.36c-42.88,-3.45 -34.6,1.92 -45.58,-21.37l-3.6 -7.33c-0.41,-0.85 -1.21,-2.48 -1.97,-3.63l-12.6 29.59z"/>
   <path class="fil2" d="M486.52 420.65l-36.23 0.68c0.82,1.08 2.23,1.31 2.73,3.28 0.5,1.93 2.09,2.57 2.78,3.24l20.96 16.35 -8.35 38.78 30.2 -18.79c13,4.61 20.89,12.14 33.88,18.39l-9.52 -34.84c5.64,-5.18 7.06,-6.21 13.91,-12.36l14.5 -14.08 -37.25 -0.22 -13.51 -35.71 -14.11 35.27z"/>
   <path class="fil2" d="M1363.32 534.37c12.88,11.47 10.1,11.87 27.32,19.2l-7.55 39.99c13.87,-6 17.7,-11.89 30.84,-17.85 13.13,5.66 18.43,11.9 31.27,18.28l-8.44 -34.43 27.23 -25.58 -35.41 -1.95 -13.29 -32.89c-26.06,38.86 6.06,29.88 -51.98,35.23z"/>
   <path class="fil2" d="M1102.94 310.06l26.87 25.62 -9.18 35.04 24 -14.27c8.45,-4.66 0.18,-0.99 9.9,-4.74 9.19,6.51 20.17,13.41 30.26,19.36l-9.43 -35.28 28.27 -23.86 -37.44 -3.5 -11.93 -34.37c-25.99,37.92 9.37,32.29 -51.32,36z"/>
   <path class="fil2" d="M95.29 756.09l-36.58 0.88 26.21 22.51 -8.54 39.1c10.08,-5.52 21.88,-12.72 30.43,-18.97 13.3,4.98 19.69,11.38 34.05,18.61l-9.63 -34.83 27.15 -25.72c-60.19,-3.6 -25.49,2.09 -51.45,-36.04l-11.64 34.47z"/>
   <path class="fil2" d="M710.9 421.75l26.98 20.78 -7.35 38.2c19.27,-7.09 17.8,-10.44 32.37,-16.6l29.87 19.41 -8.67 -35.83c12.53,-14.48 12.1,-12.37 27.43,-18.51 -9.1,-6.96 4.78,-3.09 -17.91,-7.97 -2.81,-0.61 -14.51,-0.7 -18.69,-0.97l-12.42 -33.98c-24.25,35.45 5.42,32.85 -51.61,35.45z"/>
   <path class="fil2" d="M95.08 84.92l-36.48 0.74 26.25 22.63 -8.4 39.05c10.3,-5.17 22.33,-13.29 30.36,-19.17 12.73,4.74 21.26,11.84 34.19,18.81l-9.91 -34.92 27.46 -26.59c-57.98,-0.03 -27.78,0.46 -51.67,-35.48l-11.79 34.93z"/>
   <path class="fil2" d="M1102.94 757.65c8.28,9.71 4.67,4.85 13.55,12.8 7.66,6.86 7.74,6.65 13.35,12.8l-9.2 35.05 33.9 -19.02c9.22,6.5 20.15,13.4 30.25,19.36l-9.93 -39.1c12.82,-8.52 18.36,-10.58 28.34,-20.61l-36.96 -2.94 -12.01 -34.33c-25.92,38.25 9.06,32.13 -51.29,35.98z"/>
   <path class="fil2" d="M878.32 979.74l-37.16 2.26 28.18 24.34 -9.76 35.54c11.21,-5.2 21.91,-12.15 30.48,-18.73 13.17,5.18 20.87,11.89 34.3,18.9l-10.1 -34.84 19.58 -17.85c7.55,-7 2.98,-2.26 8.29,-8.33l-36.45 -0.59 -13.75 -35.98 -13.62 35.28z"/>
   <path class="fil2" d="M226.09 419.4l-37.42 2.74c12.61,14.73 17.95,13.4 28.49,24.91l-9.67 35.56c12.3,-5.79 20.04,-12.49 31.56,-18.62l30.87 19.13 -7.69 -35.44c8.7,-8.87 18.92,-16.16 28.13,-25.85l-36.98 -1.67 -12.16 -30.9 -15.13 30.15z"/>
   <path class="fil2" d="M486.75 197.05l-37.4 1.38c13.09,13.77 15.62,9.94 28.08,25.35l-9.36 35.5 30.48 -18.96 33.75 18.73 -9.25 -35.1 27.91 -26.32 -36.83 -0.51 -13.53 -34.92 -13.85 34.84z"/>
   <path class="fil2" d="M226.1 866.99l-37.47 2.71c12.56,14.7 17.95,13.37 28.57,24.85l-9.73 35.66c12.37,-5.82 20.04,-12.51 31.58,-18.68l30.87 19.11 -7.76 -35.38c8.85,-8.97 18.9,-16.05 28.19,-25.86l-37.01 -1.68 -12.21 -30.89 -15.03 30.16z"/>
   <path class="fil2" d="M1102.63 533.49l5.57 5.57c3.91,3.62 4.98,4.42 8.36,7.51 6.71,6.13 8.44,7.92 13.22,12.89l-9.57 34.97 34.32 -18.81c7.82,5.51 20.83,14.11 30.08,19.37l-9.55 -38.91 27.67 -23.07 -35.99 -0.38 -12.96 -34.83c-24.06,36.82 7.91,34.01 -51.16,35.68z"/>
   <path class="fil2" d="M878.32 84.59l-37.16 2.26 28.18 24.34 -9.76 35.54c11.21,-5.2 21.91,-12.14 30.48,-18.73 13.17,5.18 20.87,11.89 34.3,18.9l-10.1 -34.83 27.87 -26.18 -36.45 -0.6 -13.75 -35.98 -13.62 35.28z"/>
   <path class="fil2" d="M878.33 532.2l-37.11 2.28 28.13 24.27 -9.88 35.53c11.37,-5.16 21.97,-12.04 30.59,-18.69 13.41,5.25 20.7,11.92 34.37,18.9l-10.15 -34.84 27.82 -26.17 -36.44 -0.58 -13.66 -36.05 -13.67 35.36z"/>
   <path class="fil2" d="M1140.6 976.68c-14.42,5.95 -20.22,3.78 -37.99,4.36l27.13 26 -9.52 34.95 34.31 -18.79c7.79,5.5 20.95,14.25 30.17,19.47l-9.61 -38.94 27.71 -23.18 -36.05 -0.33 -12.88 -34.89 -13.27 31.36z"/>
   <path class="fil2" d="M486.73 644.66l-37.36 1.37 27.31 21.71 -8.3 39.27 30.15 -19.2c10.67,3.98 3.35,0.64 16.08,8.3 7.35,4.42 9.4,6.2 17.72,10.54l-9.29 -35.11 27.9 -26.34 -36.78 -0.46 -13.57 -34.9 -13.87 34.82z"/>
   <path class="fil2" d="M355.62 756.85l-36.63 0.39c0.91,1.14 2.39,1.22 2.86,2.99 0.47,1.75 2.23,2.19 2.87,2.77l21.94 20.26 -9.14 34.71 33.77 -18.43c10.2,6.6 19.56,13.13 30,19.49l-9.06 -35.62c11.56,-14.64 14.85,-11.93 28.22,-24.38l-37.24 -3.04 -12.02 -33.99 -15.57 34.87z"/>
   <path class="fil2" d="M1140.6 81.53c-14.42,5.95 -20.22,3.78 -37.99,4.36l13.92 13.15c6.74,6.15 8.41,7.87 13.21,12.85l-9.52 34.95 34.31 -18.79c7.79,5.5 20.95,14.24 30.17,19.47l-9.61 -38.94 27.71 -23.18 -36.05 -0.33 -12.88 -34.89 -13.27 31.36z"/>
   <path class="fil2" d="M1270.21 868.25l-37.38 1.87c12.62,12.62 16.54,11.71 27.84,25.02l-8.59 34.89 35.7 -20.61c9.29,11.9 16.09,14.95 27.92,20.91l-9.3 -35.03 28.38 -26.52 -37.38 -0.04 -13.56 -35.46 -13.62 34.97z"/>
   <path class="fil2" d="M355.81 85.19l-36.56 0.62 27.54 26.09 -9.84 34.72 33.63 -19.71c9.59,7.44 20.56,14.47 30.63,20.49l-8.85 -35.36 28.14 -23.75 -37.43 -3.64 -12.53 -34.4 -14.73 34.95z"/>
   <path class="fil2" d="M355.81 980.34l-36.56 0.62c0.89,1.1 2.33,1.21 2.77,2.96l11.24 10.26c7.65,6.82 8.19,7.12 13.52,12.87l-9.84 34.72 33.63 -19.71c9.59,7.44 20.56,14.47 30.63,20.49l-8.85 -35.36 28.14 -23.75 -37.43 -3.64 -12.53 -34.4 -14.73 34.95z"/>
   <path class="fil2" d="M747.23 644.65l-36.21 0.41 10.88 11.37c11.17,8.97 6.95,5.29 16.37,9.69l-7.56 38.34c17.59,-7.12 18.1,-11.29 32.2,-16.56l29.51 19.25 -8.19 -38.24 28.86 -22.12 -38.21 -2.6 -12.55 -33.31 -15.11 33.78z"/>
   <path class="fil2" d="M878.39 308.66l-37.6 1.93 27.77 21.5 -8.97 39.39 28.81 -20c15.86,5.76 20.81,11.89 35.61,18.89l-9.7 -34.56 19.47 -17.71c7.2,-6.5 3.45,-2.64 8.65,-8.32l-36.88 -0.82 -13.62 -35.37 -13.54 35.08z"/>
   <path class="fil2" d="M878.39 756.19l-37.53 2.05 27.75 21.37 -8.95 39.4 28.73 -19.95c15.93,5.75 20.76,11.83 35.61,18.85l-9.65 -34.54c5.64,-5.67 6.38,-6.28 13.69,-12.77l14.4 -13.24 -36.83 -0.87 -13.7 -35.29 -13.52 35z"/>
   <path class="fil2" d="M355.61 309.24l-36.74 0.36 14.46 13.35c7.87,6.95 7.53,6.43 13.28,12.72l-9.06 34.73 33.73 -18.48c10.43,6.72 19.26,12.97 30.03,19.53l-9.81 -39.53 29.5 -19.79 -37.77 -3.74 -11.99 -34.06 -15.63 34.9z"/>
   <polygon class="fil2" points="1270.11,196.75 1232.62,198.55 1261.08,223.25 1251.71,258.74 1287.24,238.03 1315.77,259.99 1306.21,223.96 1334.37,197.32 1297.39,197.24 1283.9,161.8 "/>
   <polygon class="fil2" points="1270.08,644.35 1232.64,646.12 1261.07,670.82 1251.96,706.44 1287.24,685.53 1315.73,707.52 1306.3,671.53 1334.3,644.96 1297.38,644.91 1283.9,609.4 "/>
   <path class="fil2" d="M1270.19 420.61l-37.37 1.92c12.49,12.63 16.54,11.92 27.84,25.05l-8.61 34.91 35.77 -20.69 27.33 21.84 -8.74 -35.91 28.31 -26.46 -37.36 -0.09 -13.53 -35.43 -13.64 34.86z"/>
   <path class="fil2" d="M617.69 307.12l-37.5 3.35 25.55 20.96 -5.47 37.55c17.5,-7.11 15.04,-10.42 30.41,-17.27 14.69,6.34 13.83,9.87 30.28,17.26l-7.8 -38.77 28.59 -18.57 -36.68 -3.6 -13.08 -32.55 -14.31 31.63z"/>
   <path class="fil2" d="M617.66 754.65l-37.44 3.43 25.49 20.9 -5.46 37.53c17.53,-7.01 14.97,-10.31 30.41,-17.24 15.15,6.42 13.55,9.77 30.32,17.29l-7.83 -38.79 28.53 -18.57 -36.62 -3.58 -13.1 -32.51 -14.3 31.53z"/>
   <path class="fil2" d="M95.08 980.06l-30.92 7.21 20.7 16.17 -8.4 39.05c10.3,-5.17 22.33,-13.29 30.36,-19.17 12.73,4.74 21.26,11.84 34.19,18.8l-9.91 -34.92 27.46 -26.6c-57.98,-0.03 -27.78,0.46 -51.67,-35.47l-11.79 34.93z"/>
   <path class="fil2" d="M486.58 868.25l-30.8 7.19c0.67,0.65 2.03,2.19 2.88,2.95l18.15 13.37 -8.37 38.77 30.16 -18.77c13.05,4.63 20.93,12.13 33.92,18.42l-9.56 -34.86c5.64,-5.16 7.12,-6.23 13.94,-12.36l14.49 -14.08 -37.23 -0.23 -13.51 -35.74 -14.07 35.34z"/>
   <path class="fil2" d="M355.84 532.76l-31.05 6.36c4.32,3.97 4.46,3.92 8.47,7.49 7.72,6.87 8.13,7.02 13.53,12.86l-9.96 34.77 33.77 -19.74c9.58,7.41 20.57,14.45 30.65,20.47l-8.94 -35.36 28.16 -23.76 -37.38 -3.68 -12.62 -34.3 -14.63 34.88z"/>
   <path class="fil2" d="M95.05 532.46l-28.02 10.19c0.8,0.73 2.06,1.85 2.95,2.61 3.64,3.1 9.21,6.31 14.91,10.54l-8.41 39.09c10.52,-5.28 22.15,-13.17 30.32,-19.19 12.72,4.73 21.34,11.79 34.2,18.86l-9.97 -34.93 27.49 -26.58 -35.96 -0.16 -13.88 -36.02 -13.63 35.59z"/>
   <path class="fil2" d="M747.25 197.06l-25.37 11.81c11.24,9.05 6.86,5.28 16.34,9.72l-7.51 38.27 31.52 -17.57 30.18 20.28 -8.25 -38.25 28.88 -22.08 -38.19 -2.6 -12.51 -33.35 -15.1 33.78z"/>
  </g>
 </g>
</svg>
